# xmcd
#
# Track frame offsets:
#	150
#	18236
#	37981
#	50065
#	63242
#	77634
#	97635
#	106495
#	119291
#	141338
#	150367
#	157358
#	171252
#
# Disc length: 2484 seconds
#
# Revision: 0
# Processed by: cddbd v1.5.1PL2 Copyright (c) Steve Scherf et al.
# Submitted via: dBpowerAMP V4.0
#
DISCID=a109b20d
DTITLE=Dave Lombardi - Guardian Mouse
DYEAR=1900
DGENRE=
TTITLE0=These Little Moments
TTITLE1=Ghost Town
TTITLE2=Guardian Mouse
TTITLE3=he Will Come To It
TTITLE4=Can't Stop
TTITLE5=Little Bits of Grace
TTITLE6=Hymn of the Soul
TTITLE7=Blue Leopard
TTITLE8=Wild Abandon
TTITLE9=Wasn't It
TTITLE10=Ten Pounds
TTITLE11=Jump Into the Pool
TTITLE12=Pick Your Poison
EXTD=
EXTT0=
EXTT1=
EXTT2=
EXTT3=
EXTT4=
EXTT5=
EXTT6=
EXTT7=
EXTT8=
EXTT9=
EXTT10=
EXTT11=
EXTT12=
PLAYORDER=
